<svg enable-background="new 0 0 200 200" viewBox="0 0 200 200" xmlns="http://www.w3.org/2000/svg" xmlns:xlink="http://www.w3.org/1999/xlink"><radialGradient id="a" cx="100" cy="100" gradientUnits="userSpaceOnUse" r="91.4"><stop offset=".7794" stop-color="#133281"/><stop offset=".9656" stop-color="#fff"/><stop offset="1" stop-color="#fff"/></radialGradient><circle cx="100" cy="100" fill="#133281" r="100"/><circle cx="100" cy="100" fill="url(#a)" r="91.4"/><circle cx="100" cy="100" fill="#133281" r="77.7"/><path d="m73.6 59.7v80.5h-20.1v-43.1c0-6.2-.1-10-.4-11.2-.3-1.3-1.1-2.2-2.5-2.9-1.3-.6-4.3-1-9-1h-2v-9.4c9.7-2.1 17.1-6.4 22.1-12.9zm46.2 34.9c3 1.2 5.2 3 6.8 5.4s2.4 8 2.4 16.9c0 6.5-.6 11.3-1.9 14.4s-3.7 5.6-7.4 7.6c-3.6 2-8.5 3-14.7 3-6 0-10.7-.9-14.2-2.8s-6-4.4-7.5-7.5-2.3-8.3-2.3-15.6c0-4.9.4-9.1 1.1-12.7s3.1-6.5 7-8.6c-2.5-1.2-4.4-3.1-5.6-5.7s-1.9-5.9-1.9-9.9c0-6.9 1.9-12.1 5.8-15.6 3.8-3.5 9.6-5.2 17.3-5.2 8.9 0 15 1.8 18.4 5.5s5.1 8.9 5.1 15.8c0 4.3-.6 7.5-1.7 9.4-1 1.8-3.3 3.7-6.7 5.6zm-10.9 16.2c0-3.1-.3-5.1-.9-6.1s-1.6-1.5-3-1.5c-1.3 0-2.3.5-2.9 1.5s-.9 3-.9 6.2v10.4c0 3.5.3 5.7 1 6.7.6 1 1.7 1.5 3.1 1.5s2.4-.5 2.9-1.5.7-3.3.7-6.8zm-.4-33.5c0-2.7-.2-4.5-.7-5.4s-1.4-1.3-2.8-1.3c-1.3 0-2.2.5-2.7 1.4s-.7 2.7-.7 5.3v6.1c0 2.4.3 4.1.8 5s1.4 1.4 2.7 1.4 2.2-.5 2.7-1.4.7-2.8.7-5.6zm24 11.7h12.9v-12.9h12.1v12.9h13v12.1h-13v12.9h-12.1v-12.8h-12.9z" fill="#fff"/></svg>