<svg enable-background="new 0 0 200 168.4" viewBox="0 0 200 168.4" xmlns="http://www.w3.org/2000/svg"><path d="m103 140c-.3 1.2-.5 2.3-.8 3.5-1.4 5.4-4.7 9.4-8.9 12.8-8 6.5-17.4 9.6-27.5 11.1-7.4 1.1-14.9 1.2-22.3.9s-14.9-1.1-22-3.6c-11.2-4-17.7-11.8-18.8-23.7-.2-2.4 0-4.9 0-7.6 11.4 1.3 22.6 2.6 33.8 3.9.2.5.4.8.5 1.2 1.6 5.1 5.5 7.3 10.5 7.8 2.3.2 4.7.2 6.9-.1 6-1 9.5-4.7 10.4-11 .4-2.8.5-5.7.5-8.6.1-3.8 0-7.5 0-11.8-.8.7-1.3 1.1-1.7 1.6-8.1 8.9-18.3 12.1-30 11-10-.9-18-5.9-24.1-13.7-5.8-7.4-8.4-15.9-9.2-25.1-.8-8.4-.4-16.7 2-24.8 4.3-14.5 13.8-23.3 28.7-25.8 6-1 12.1-.6 18.1.9 6.6 1.7 11.8 5.6 16.1 10.8.8.9 1.5 1.8 2.6 3.2 0-5.1 0-9.7 0-14.5h64c0-12.9 0-25.6 0-38.4h46.6v38.4h21.2v23.4c-7 0-13.9 0-21.1 0-.1 1.8-.6 18.2-.7 24.9-.1 9.1-.2 18.1-.5 27.2-.2 5.4 2.6 8 7.9 7.9h12c.9 0 1.7.1 2.7.1v32.7c-.5.1-.8.2-1.2.2-11.5 0-23.1.1-34.6-.1-5.4-.1-10.7-.9-15.8-2.7-9.1-3.3-13.8-10.2-15.5-19.2-.9-4.8-.9-9.7-1-14.6-.1-17.4-.1-34.8-.1-52.2 0-1.3 0-2.7 0-4.2-.6 0-27.9 0-28.9 0 .1 25.9.2 52.5.2 78.2zm-68.3-57.4c0 4.3.4 5.9.9 8.4 1.8 9.5 9.1 14 17.9 12.3 6.3-1.2 9.8-5.7 11.4-11.7 1.1-4.5 1.2-9 .5-13.6-.8-4.6-2.6-8.5-6.3-11.6-7-5.9-19.2-4.4-22.5 6.1-1 2.6-1.9 6.8-1.9 10.1z" fill="#825aa5"/><path d="m103 140c0-25.7-.2-52.4-.2-78.1 7.3 2.2 14.9 5.4 22.2 7.6v60c-1.4.7-2.9 1.5-4.4 2.2-5.5 2.6-17.3 8.1-17.6 8.3z" fill="#91919a"/></svg>