<svg enable-background="new 0 0 400 48.1" viewBox="0 0 400 48.1" xmlns="http://www.w3.org/2000/svg"><path d="m190.5 47.1c-.9.2-5 1-9.8 1-7.5 0-17.6-3.7-17.6-19v-9.1c0-15.6 10.1-19 17.6-19 4.8 0 8.9.7 9.8 1 .8.2 1.4.6 1.4 1.4v4.2c0 .7-.3 1.3-1.2 1.3h-.1c-2.2-.2-6.4-.5-9.7-.5-5.2 0-9 2.8-9 11.6v9.1c0 8.6 3.8 11.6 9 11.6 3.3 0 7.5-.3 9.7-.5h.1c.9 0 1.2.6 1.2 1.3v4.2c0 .9-.6 1.2-1.4 1.4zm29.8.5h-5.3c-.7 0-1.2-.6-1.2-1.2v-1c-2.9 1.7-5.8 2.7-8.8 2.7-5.2 0-10.7-2-10.7-10.4v-.2c0-7.1 4.3-10.7 15.2-10.7h3.9v-2.8c0-4-1.8-5-5.5-5-4 0-8.1.2-10.1.5-.1 0-.2 0-.3 0-.6 0-1.1-.2-1.1-1.1v-4c0-.7.4-1.1 1.2-1.3 2.5-.5 6.1-1 10.4-1 8.8 0 13.7 3.9 13.7 11.9v22.4c-.1.7-.7 1.2-1.4 1.2zm-6.9-15.4h-3.9c-5.7 0-6.9 1.8-6.9 5.3v.2c0 3 1.4 3.9 4.5 3.9 2.2 0 4.5-.7 6.3-1.7zm24.5 15.9c-2.4 0-7.6-.3-11.1-1.2-.7-.2-1.2-.7-1.2-1.4v-3.7c0-.5.4-1 1.1-1h.2c3 .4 8.6.7 10.4.7 3.9 0 4.4-1.3 4.4-3 0-1.2-.7-1.9-2.7-3.2l-8.5-5.2c-3-1.9-5.2-5-5.2-8.6 0-6.2 3.9-9.3 11.8-9.3 5 0 7.9.6 11.1 1.2.7.2 1.1.7 1.1 1.4v3.6c0 .7-.4 1.2-1 1.2-.1 0-.2 0-.2 0-1.7-.2-6.7-.7-10.2-.7-3 0-4.3.7-4.3 2.6 0 1 .9 1.6 2.5 2.5l8.1 5c5.2 3.2 6 6.3 6 9.4-.1 5.5-4.2 9.7-12.3 9.7zm23.2-40.1h-6c-.7 0-1.3-.6-1.3-1.2v-5.6c0-.7.6-1.2 1.3-1.2h6c.7 0 1.2.6 1.2 1.2v5.5c.1.7-.5 1.3-1.2 1.3zm-.1 39.6h-5.7c-.7 0-1.2-.6-1.2-1.3v-32.4c0-.7.6-1.2 1.2-1.2h5.7c.7 0 1.2.6 1.2 1.2v32.5c0 .6-.6 1.2-1.2 1.2zm33.8 0h-5.7c-.7 0-1.2-.6-1.2-1.3v-20.2c0-5.4-.5-7-5.3-7-2.1 0-4.4.9-7 2.2v25c0 .7-.6 1.3-1.2 1.3h-5.7c-.7 0-1.2-.6-1.2-1.3v-32.4c0-.7.6-1.2 1.2-1.2h5.4c.7 0 1.2.6 1.2 1.2v1.3c3.6-2.3 6-3 10.1-3 8.9 0 10.7 6 10.7 13.9v20.2c-.1.7-.6 1.3-1.3 1.3zm20 .5c-9.8 0-14.8-6.6-14.8-15.5v-5c0-8.9 5.1-15.5 14.8-15.5s14.8 6.6 14.8 15.5v5c0 9-5.1 15.5-14.8 15.5zm6.6-20.5c0-5.1-2.3-8.4-6.6-8.4s-6.6 3.3-6.6 8.4v5c0 5.1 2.3 8.4 6.6 8.4s6.6-3.3 6.6-8.4z" fill="#ee1c25"/><path d="m13.7 48.1c-5 0-8.8-.3-10.7-.7-2-.4-3-1.1-3-3.4v-39c0-2.2.8-3 2.8-3.4 1.6-.2 5.5-.6 10.4-.6 11.2 0 19.1 3.2 19.1 12.6v1.2c0 4.1-1.9 7.8-5.7 9.4 3.8 1.6 6 4.8 6 9.4v1.1c0 9.9-7.3 13.4-18.9 13.4zm10.2-34c0-4.3-2.8-6-10.7-6-1.5 0-3.2.1-4.5.1v12.6h7.9c5.8 0 7.4-2.7 7.4-5.9v-.8zm.3 19.7c0-3.4-1.8-6.6-7.6-6.6h-8v13.7c1.5 0 3.8.1 5.1.1 8 0 10.4-2 10.4-6.4v-.8zm26.2 14.3c-9.8 0-14.8-6.6-14.8-15.5v-5c0-8.9 5.1-15.5 14.8-15.5 9.8 0 14.8 6.6 14.8 15.5v5c.1 9-5 15.5-14.8 15.5zm6.7-20.5c0-5.1-2.3-8.4-6.6-8.4s-6.6 3.3-6.6 8.4v5c0 5.1 2.3 8.4 6.6 8.4s6.6-3.3 6.6-8.4zm39.5 20h-5.7c-.7 0-1.2-.6-1.2-1.3v-20.2c0-5.4-.5-7-5.3-7-2.1 0-4.4.9-7 2.2v25c0 .7-.6 1.3-1.2 1.3h-5.7c-.7 0-1.2-.6-1.2-1.3v-32.4c0-.7.6-1.2 1.2-1.2h5.4c.7 0 1.2.6 1.2 1.2v1.3c3.6-2.3 6-3 10.1-3 8.9 0 10.7 6 10.7 13.9v20.2c0 .7-.6 1.3-1.3 1.3zm33.7 0h-5.7c-.7 0-1.2-.6-1.2-1.2v-1.4c-3.2 2.1-5.8 3.1-9.8 3.1-3.1 0-5.8-.8-7.6-2.6-2.3-2.3-3.1-6.1-3.1-11.3v-20.3c0-.7.6-1.3 1.2-1.3h5.7c.7 0 1.2.6 1.2 1.3v20.2c0 3.1.2 4.9 1.4 6 .9.7 1.9 1.1 3.9 1.1 2.3 0 5.3-1.6 7-2.5v-24.8c0-.7.6-1.3 1.2-1.3h5.7c.7 0 1.2.6 1.2 1.3v32.5c.1.7-.4 1.2-1.1 1.2zm17.6.5c-2.4 0-7.6-.3-11.1-1.2-.7-.2-1.2-.7-1.2-1.4v-3.7c0-.5.4-1 1.1-1h.2c3 .4 8.6.7 10.4.7 3.9 0 4.4-1.3 4.4-3 0-1.2-.7-1.9-2.7-3.2l-8.5-5.2c-3-1.9-5.2-5-5.2-8.6 0-6.2 3.9-9.3 11.8-9.3 5 0 7.9.6 11.1 1.2.7.2 1.1.7 1.1 1.4v3.6c0 .7-.4 1.2-1 1.2-.1 0-.2 0-.2 0-1.7-.2-6.7-.7-10.2-.7-3 0-4.3.7-4.3 2.6 0 1 .9 1.6 2.5 2.5l8.1 5c5.2 3.2 6 6.3 6 9.4-.2 5.5-4.2 9.7-12.3 9.7zm197.9 0c-4.7 0-8-.4-11-1.1-.6-.1-1.2-.6-1.2-1.2v-4.5c0-.7.6-1.2 1.2-1.2h.1c2.5.3 8.7.6 11 .6 5.5 0 7.2-2 7.2-5.6 0-2.4-1.2-3.7-5.3-6.1l-8.2-4.9c-5.8-3.4-7.3-7-7.3-11.4 0-6.8 4-11.8 15.5-11.8 4.1 0 9.8.6 11.9 1.1.6.1 1.1.6 1.1 1.2v4.6c0 .6-.4 1.1-1.1 1.1-.1 0-.1 0-.1 0-4.1-.4-8.2-.6-12.2-.6-4.6 0-6.5 1.6-6.5 4.4 0 2 1.1 3.3 5.1 5.5l7.5 4.2c6.8 3.8 8.6 7.8 8.6 12.7 0 6.3-3.9 13-16.3 13zm53.3-.5h-8.3c-.7 0-1.1-.2-1.4-.7l-14.2-21.2v20.6c0 .7-.6 1.2-1.2 1.2h-6.1c-.7 0-1.2-.6-1.2-1.2v-43.6c0-.7.6-1.2 1.2-1.2h6.1c.7 0 1.2.5 1.2 1.2v19.8l15.1-20.5c.3-.4.7-.5 1.4-.5h7.1c.8 0 1.2.3 1.2.7 0 .3-.2.7-.4 1l-15.9 20.6 16 22.5c.2.3.3.6.3.7 0 .5-.3.6-.9.6z" fill="#0b4ea2"/></svg>